<svg width="116" height="64" viewBox="0 0 116 64" fill="none" xmlns="http://www.w3.org/2000/svg">
<path d="M16.1669 18.6053C16.1669 18.4676 18.5086 14.3101 21.3637 9.37631C24.2188 4.42998 26.6105 0.385254 26.6732 0.385254C26.7358 0.385254 33.2474 11.6053 41.1365 25.3173C49.0256 39.0418 55.4996 50.3119 55.5247 50.362C55.5372 50.4246 50.8914 50.4747 34.3243 50.4622L25.2456 34.659C20.2492 25.9685 16.1669 18.743 16.1669 18.6053Z" fill="#EA8303"/>
<path d="M8.15257 29.1241C8.49067 29.0114 9.11679 28.8361 9.53003 28.7484C9.94327 28.6608 10.9701 28.5731 11.8091 28.5731C12.7483 28.5606 13.725 28.6357 14.3136 28.7609C14.852 28.8611 15.7411 29.1491 16.2921 29.3871C16.8431 29.625 17.5944 30.0007 17.9701 30.2261C18.3458 30.4389 19.1222 31.0776 19.7107 31.6286C20.2867 32.1795 21.0631 33.0812 21.4388 33.6321C21.802 34.1831 22.2528 34.9971 22.4406 35.4479C22.6284 35.8987 22.8914 36.65 23.0166 37.1384C23.1669 37.6518 23.2921 38.616 23.3297 39.455C23.3672 40.294 23.3422 41.2833 23.2545 41.8343C23.1669 42.3477 22.9415 43.2493 22.7411 43.8379C22.5282 44.4264 22.1025 45.3531 21.7769 45.8915C21.4388 46.43 20.7501 47.3316 20.2367 47.8826C19.7232 48.4336 18.8216 49.1974 18.2331 49.5856C17.6445 49.9864 16.7179 50.4747 16.1669 50.6876C15.6159 50.9005 14.6892 51.176 14.1007 51.2887C13.2867 51.464 12.6606 51.489 11.4084 51.439C10.2939 51.4014 9.49246 51.2887 8.86635 51.1134C8.37797 50.9631 7.58906 50.6751 7.11321 50.4622C6.64989 50.2493 5.88602 49.8236 5.39765 49.498C4.9218 49.1724 4.15794 48.5463 3.71965 48.0955C3.26885 47.6447 2.61768 46.8307 2.25454 46.2797C1.89139 45.7287 1.42806 44.8522 1.21518 44.3388C1.01482 43.8253 0.751851 42.9738 0.63915 42.4604C0.513926 41.8969 0.42627 40.9452 0.42627 40.0812C0.42627 39.2171 0.513926 38.2404 0.63915 37.6393C0.751851 37.0883 1.03987 36.1867 1.27779 35.6357C1.51572 35.0847 1.89139 34.3334 2.11679 33.9577C2.32967 33.5946 2.83056 32.9184 3.20624 32.4676C3.58191 32.0168 4.28316 31.3405 4.77153 30.9774C5.24738 30.6143 6.07386 30.0883 6.58727 29.8253C7.10069 29.5624 7.80194 29.2368 8.15257 29.1241Z" fill="#EA8303"/>
<path d="M41.8379 58.2512C41.9757 58.2387 42.3011 58.3137 42.564 58.4013C42.8771 58.5015 43.0275 58.6267 43.0275 58.777C43.0275 58.9774 42.9898 58.9773 42.4388 58.7895C41.913 58.6017 41.7877 58.6018 41.4622 58.752C41.2619 58.8522 41.0114 59.0775 40.8987 59.2779C40.7359 59.5784 40.7359 59.6536 40.8987 59.9666C41.024 60.1795 41.412 60.4552 42.0005 60.7432C42.5515 61.0061 42.9899 61.3067 43.0901 61.4945C43.1903 61.6698 43.2654 61.9953 43.278 62.2206C43.278 62.4961 43.1527 62.7593 42.9023 63.0598C42.6769 63.3228 42.3637 63.5231 42.1258 63.5732C41.8879 63.6232 41.4747 63.573 41.1492 63.4729C40.8362 63.3727 40.5356 63.1974 40.4604 63.0847C40.3853 62.972 40.3602 62.8594 40.3978 62.8218C40.4355 62.7843 40.711 62.8719 41.0239 63.0221C41.4246 63.1974 41.7126 63.2601 42.0005 63.1975C42.2134 63.1599 42.4891 62.997 42.5892 62.8468C42.6894 62.684 42.777 62.3836 42.7771 62.1832C42.7771 61.9829 42.7143 61.7072 42.6267 61.5945C42.5389 61.4818 42.1008 61.2189 41.6501 61.0185C41.1992 60.8307 40.7358 60.5301 40.6106 60.3548C40.4979 60.192 40.3978 59.854 40.3978 59.6161C40.3978 59.3782 40.4854 59.0401 40.5981 58.8773C40.7108 58.727 40.9737 58.514 41.1991 58.4138C41.4119 58.3261 41.7001 58.2512 41.8379 58.2512Z" fill="white"/>
<path d="M49.2261 58.2512C49.3639 58.2387 49.6893 58.3137 49.9522 58.4013C50.2653 58.5015 50.4157 58.6267 50.4157 58.777C50.4157 58.9774 50.378 58.9773 49.8145 58.7895C49.3012 58.6016 49.1759 58.6018 48.8504 58.752C48.6501 58.8522 48.3996 59.0775 48.2869 59.2779C48.1241 59.5784 48.1241 59.6536 48.2869 59.9541C48.3871 60.142 48.6125 60.3674 48.7878 60.455C48.9632 60.5427 49.3762 60.7431 49.7143 60.8933C50.0899 61.0686 50.3906 61.319 50.4908 61.5319C50.591 61.7198 50.6662 62.0455 50.6662 62.2458C50.6661 62.4837 50.5284 62.7843 50.2905 63.0598C50.0651 63.3228 49.7519 63.5231 49.5015 63.5732C49.2761 63.6232 48.8629 63.573 48.5374 63.4729C48.2244 63.3727 47.9113 63.1974 47.8486 63.0847C47.786 62.972 47.7484 62.8594 47.786 62.8218C47.8237 62.7843 48.0741 62.8719 48.3495 63.0097C48.7001 63.1849 48.9882 63.2351 49.2887 63.185C49.5266 63.1474 49.827 63.0221 49.9522 62.8969C50.0774 62.7717 50.1778 62.5088 50.1653 62.2458C50.1653 62.0079 50.1025 61.7072 50.0148 61.5945C49.9271 61.4818 49.489 61.2189 49.0382 61.0185C48.5874 60.8307 48.124 60.5301 47.9988 60.3548C47.8861 60.192 47.786 59.8664 47.786 59.6536C47.786 59.4282 47.8861 59.09 47.9988 58.9022C48.124 58.7269 48.3996 58.5014 48.6 58.4138C48.8003 58.3262 49.0884 58.2512 49.2261 58.2512Z" fill="white"/>
<path fill-rule="evenodd" clip-rule="evenodd" d="M72.0794 58.3639C72.3174 58.3013 72.7932 58.2762 73.1438 58.3138C73.5194 58.3514 73.9952 58.5141 74.3207 58.7144C74.7214 58.9523 74.9845 59.253 75.2474 59.7414C75.5354 60.3048 75.598 60.5428 75.5605 61.0562C75.5229 61.4068 75.3976 61.9076 75.2599 62.1705C75.1347 62.446 74.7967 62.8343 74.5213 63.0221C74.2458 63.2225 73.795 63.4479 73.5195 63.523C73.244 63.5856 72.7681 63.6107 72.4551 63.5732C72.1421 63.5231 71.6662 63.3603 71.3907 63.1975C71.1152 63.0347 70.7769 62.7341 70.6266 62.5337C70.4889 62.3459 70.3011 61.9828 70.226 61.7449C70.1384 61.5071 70.0758 61.1063 70.0758 60.8684C70.0758 60.6305 70.226 60.1295 70.4138 59.7538C70.6267 59.3531 70.9399 58.9523 71.2028 58.777C71.4408 58.6142 71.8415 58.4265 72.0794 58.3639ZM72.7681 58.6143C72.6304 58.6269 72.2923 58.702 72.0168 58.8022C71.7413 58.9024 71.3781 59.1151 71.2278 59.2779C71.065 59.4282 70.852 59.7037 70.7518 59.8915C70.6517 60.0919 70.5767 60.5678 70.5767 60.9559C70.5767 61.5069 70.6392 61.7825 70.8646 62.1206C71.0149 62.3585 71.3406 62.684 71.5785 62.8468C71.8164 62.997 72.1796 63.1599 72.3925 63.1975C72.5929 63.2475 72.9685 63.2476 73.2064 63.1975C73.4444 63.1599 73.8451 62.997 74.083 62.8468C74.3209 62.684 74.6464 62.3585 74.7967 62.1206C75.0221 61.7825 75.0848 61.5069 75.0848 60.9559C75.0848 60.5678 75.0096 60.0919 74.9094 59.8915C74.8218 59.7037 74.5713 59.4032 74.3459 59.2028C74.133 59.015 73.7448 58.8147 73.4818 58.7396C73.2314 58.677 72.906 58.6144 72.7681 58.6143Z" fill="white"/>
<path d="M84.3887 58.3639C84.5766 58.3639 84.6018 58.5391 84.6018 60.1545C84.6018 61.7447 84.5641 61.9952 84.3137 62.4836C84.1634 62.7841 83.863 63.1348 83.6626 63.2601C83.4623 63.3853 82.9989 63.5231 82.6608 63.5607C82.1599 63.6233 81.9344 63.5856 81.4837 63.3477C81.1706 63.1849 80.8199 62.922 80.6946 62.7467C80.5569 62.5714 80.4068 62.1832 80.3442 61.8702C80.2816 61.5571 80.2315 60.6428 80.2189 59.8414C80.2189 58.4514 80.2315 58.3639 80.4694 58.3639C80.7072 58.3639 80.7198 58.4518 80.7198 60.117C80.7198 61.3942 80.7699 61.9827 80.9077 62.2833C81.0204 62.5212 81.2958 62.8092 81.6214 62.9845C82.0471 63.2224 82.2726 63.2726 82.6608 63.21C82.9363 63.1599 83.2868 63.0347 83.4371 62.9346C83.5999 62.8344 83.8253 62.5963 83.938 62.4085C84.1258 62.1205 84.1635 61.7698 84.1635 60.2171C84.1635 58.5517 84.1884 58.3639 84.3887 58.3639Z" fill="white"/>
<path d="M62.9381 58.4265C63.2887 58.3138 63.752 58.2637 64.1526 58.3013C64.5158 58.3389 65.0168 58.4516 65.2547 58.5517C65.5301 58.6644 65.6803 58.8147 65.6678 58.9399C65.6428 59.0733 65.5677 59.111 65.4426 59.0526C65.3424 59.0025 65.0042 58.8771 64.6912 58.7895C64.3782 58.6893 63.9524 58.6144 63.752 58.6143C63.5517 58.6143 63.151 58.7269 62.8755 58.8521C62.5875 58.9773 62.1993 59.303 61.9989 59.566C61.6608 59.9918 61.6232 60.1295 61.6232 60.9435C61.6232 61.6697 61.6733 61.9202 61.8862 62.2082C62.0239 62.396 62.337 62.684 62.5749 62.8468C62.8128 62.997 63.2011 63.1599 63.439 63.21C63.6895 63.26 64.1653 63.2099 64.566 63.0972C64.9416 62.997 65.3672 62.8592 65.4924 62.7966C65.6928 62.709 65.7178 62.7217 65.6803 62.9346C65.6426 63.0973 65.4298 63.26 65.0043 63.4103C64.566 63.5605 64.1652 63.6108 63.6268 63.5607C63.1385 63.5231 62.6875 63.3979 62.3369 63.185C62.0113 62.9972 61.6732 62.6464 61.4603 62.2833C61.1849 61.7949 61.1223 61.532 61.1348 60.931C61.1348 60.5053 61.2224 60.0169 61.3351 59.804C61.4478 59.6036 61.7233 59.2404 61.9612 59.015C62.1866 58.8021 62.625 58.5267 62.9381 58.4265Z" fill="white"/>
<path d="M2.01676 58.3639C2.89325 58.3639 3.45683 58.414 3.45683 58.4891C3.45632 58.5642 2.94236 58.6269 1.01497 58.677L0.952356 60.7432H2.14198C3.11862 60.7432 3.33161 60.7807 3.33161 60.931C3.3315 61.0812 3.11807 61.1188 0.952356 61.1188L1.01497 63.185L2.22954 63.2224C2.9433 63.235 3.45683 63.2977 3.45683 63.3728C3.45627 63.4479 2.89193 63.4981 0.57644 63.4981V58.3639H2.01676Z" fill="white"/>
<path d="M7.91474 58.3639C8.05252 58.3515 8.37797 58.5893 8.64089 58.8897C8.91639 59.1903 9.36739 59.6786 10.1563 60.5301L11.1581 59.4283C11.7967 58.7271 12.235 58.3513 12.3602 58.3764C12.5228 58.414 12.2973 58.7397 11.521 59.6161C10.945 60.2673 10.4694 60.8308 10.4694 60.8684C10.4704 60.907 10.9709 61.5076 11.5964 62.2206C12.4602 63.2097 12.6606 63.4979 12.4729 63.4981C12.3227 63.4981 11.8342 63.0721 11.183 62.3583C10.6195 61.7448 10.1185 61.2439 10.081 61.269C10.043 61.2945 9.57989 61.7952 9.05423 62.4085C8.44079 63.097 8.00255 63.4979 7.83966 63.4981C7.61426 63.4981 7.6392 63.4479 7.98983 63.0221C8.21523 62.7466 8.72875 62.1582 9.84324 60.8684L9.11684 60.0417C8.72865 59.5784 8.24032 59.0149 8.03997 58.7895C7.72692 58.4138 7.71439 58.3639 7.91474 58.3639Z" fill="white"/>
<path fill-rule="evenodd" clip-rule="evenodd" d="M18.2332 58.3639C18.8718 58.3639 19.3728 58.4265 19.6107 58.5517C19.811 58.6519 20.0489 58.8647 20.1241 59.0274C20.2117 59.1777 20.2617 59.5285 20.2617 59.804C20.2492 60.0919 20.149 60.4049 20.0238 60.5426C19.8986 60.6678 19.6106 60.8558 19.3852 60.9435C19.1723 61.0436 18.6714 61.1188 17.6071 61.1188V62.3084C17.6071 63.2848 17.5694 63.498 17.4193 63.4981C17.2565 63.4981 17.2314 63.1348 17.2314 60.931V58.3639H18.2332ZM17.6071 58.6143V60.7432C19.1347 60.7432 19.2851 60.7056 19.5481 60.4301C19.7234 60.2548 19.8611 59.9667 19.8611 59.7663C19.8611 59.5785 19.7735 59.303 19.6733 59.1402C19.5731 58.9899 19.2725 58.8147 19.0095 58.7396C18.7591 58.677 18.3333 58.6144 18.0703 58.6143H17.6071Z" fill="white"/>
<path fill-rule="evenodd" clip-rule="evenodd" d="M25.8719 58.3639C26.5105 58.3639 27.0114 58.4265 27.2493 58.5517C27.4497 58.6519 27.6751 58.8523 27.7502 58.99C27.8253 59.1279 27.8754 59.466 27.8754 59.7414C27.8754 60.1044 27.7878 60.3299 27.5624 60.5553C27.3997 60.7305 27.1993 60.8682 27.1241 60.8684C27.0615 60.8684 27.2992 61.3065 27.6749 61.845C28.038 62.3709 28.4262 62.9594 28.5515 63.1598C28.7393 63.4729 28.7394 63.4981 28.5265 63.4981C28.3888 63.4981 28.0506 63.0723 27.5873 62.3711C26.9737 61.4068 26.8109 61.2188 26.3977 61.1061C26.1473 61.031 25.7968 60.9935 25.6214 61.0185C25.3092 61.056 25.3082 61.081 25.2709 62.2742L25.2707 62.2833C25.2457 63.2597 25.2081 63.4979 25.0579 63.4981C24.8951 63.4981 24.8701 63.1348 24.8701 60.931V58.3639H25.8719ZM25.709 58.6143C25.5212 58.6143 25.3332 58.6893 25.2956 58.777C25.2581 58.8772 25.2457 59.3406 25.2707 59.8164L25.3084 60.6805C26.836 60.643 26.9737 60.6053 27.2117 60.3173C27.3745 60.142 27.4998 59.8665 27.4998 59.7037C27.5123 59.5534 27.412 59.303 27.2867 59.1402C27.1615 58.9774 26.836 58.8022 26.5606 58.7396C26.2851 58.677 25.9093 58.6144 25.709 58.6143Z" fill="white"/>
<path d="M34.5123 58.3639C35.3512 58.3639 35.8898 58.414 35.8898 58.4891C35.8893 58.5642 35.4129 58.6143 33.5105 58.6143V60.7432H34.6375C35.5516 60.7432 35.7645 60.7807 35.7645 60.931C35.7644 61.0812 35.551 61.1188 33.5105 61.1188V63.2476H34.7627C35.514 63.2476 36.015 63.2977 36.015 63.3728C36.0144 63.4479 35.4502 63.4981 33.1348 63.4981V58.3639H34.5123Z" fill="white"/>
<path fill-rule="evenodd" clip-rule="evenodd" d="M90.4873 58.3639C91.1259 58.3639 91.6268 58.4265 91.8647 58.5517C92.0651 58.652 92.3281 58.9149 92.4283 59.1152C92.5284 59.3156 92.6161 59.591 92.6161 59.7162C92.6161 59.8289 92.5034 60.1169 92.3656 60.3423C92.2279 60.5552 91.9899 60.7807 91.5517 60.8808L91.8146 61.1562C91.9649 61.3065 92.3655 61.8701 92.7286 62.4085C93.0792 62.9344 93.3674 63.3979 93.3674 63.4355C93.3672 63.473 93.267 63.4981 93.1419 63.4981C93.0167 63.4856 92.6662 63.0721 92.2404 62.4085C91.7395 61.6196 91.4389 61.2815 91.1384 61.1562C90.9255 61.0686 90.5623 60.9936 89.9864 60.9936V62.2458C89.9864 63.4101 89.9737 63.498 89.7359 63.4981C89.498 63.4981 89.4855 63.4103 89.4855 60.931V58.3639H90.4873ZM90.0113 59.666L89.9864 60.7432C90.6124 60.7431 90.9757 60.7181 91.176 60.6805C91.3764 60.6429 91.6768 60.5052 91.8271 60.3675C92.04 60.1796 92.1026 60.0042 92.0775 59.6536C92.065 59.3406 91.9649 59.1401 91.7395 58.9773C91.5642 58.8521 91.1132 58.7018 90.725 58.6642L90.0238 58.5767L90.0113 59.666Z" fill="white"/>
<path d="M97.9381 58.3639C98.1008 58.3641 98.1259 58.7276 98.1259 60.931C98.1259 63.1343 98.1008 63.4979 97.9381 63.4981C97.7753 63.4981 97.7503 63.1348 97.7503 60.931C97.7503 58.7271 97.7753 58.3639 97.9381 58.3639Z" fill="white"/>
<path d="M104.512 58.3639C105.351 58.3639 105.89 58.414 105.89 58.4891C105.889 58.5642 105.413 58.6143 103.511 58.6143V60.7432H104.663C105.614 60.7432 105.827 60.7807 105.827 60.931C105.827 61.0812 105.614 61.1188 103.511 61.1188V63.2476H104.763C105.514 63.2476 106.015 63.2977 106.015 63.3728C106.014 63.4479 105.45 63.4981 103.135 63.4981V58.3639H104.512Z" fill="white"/>
<path fill-rule="evenodd" clip-rule="evenodd" d="M111.65 58.3639C112.289 58.3639 112.79 58.4265 113.028 58.5517C113.24 58.6519 113.466 58.8523 113.528 58.99C113.591 59.1279 113.654 59.466 113.654 59.7414C113.654 60.1295 113.578 60.3174 113.303 60.5553C113.115 60.7306 112.927 60.8808 112.865 60.8684C112.815 60.8684 113.077 61.3065 113.453 61.845C113.816 62.3709 114.204 62.9594 114.33 63.1598C114.518 63.4729 114.518 63.4981 114.305 63.4981C114.18 63.4981 113.804 63.0596 113.341 62.3583C112.727 61.4318 112.514 61.2063 112.151 61.0936C111.913 61.031 111.575 60.9935 111.4 61.0185C111.087 61.056 111.086 61.081 111.049 62.2742L111.049 62.2833C111.024 63.2597 110.986 63.4979 110.836 63.4981C110.673 63.4981 110.648 63.1348 110.648 60.931V58.3639H111.65ZM111.525 58.6268C111.35 58.6268 111.149 58.6644 111.099 58.7019C111.036 58.752 110.999 59.2405 111.011 59.804L111.024 60.8182C112.502 60.668 112.727 60.5803 112.977 60.3298C113.14 60.142 113.29 59.8664 113.29 59.7162C113.29 59.5659 113.19 59.3029 113.065 59.1527C112.952 58.9899 112.627 58.8022 112.351 58.7396C112.076 58.677 111.7 58.6268 111.525 58.6268Z" fill="white"/>
<path fill-rule="evenodd" clip-rule="evenodd" d="M44.0919 0.723346C44.1563 0.673292 46.7999 0.648327 55.7377 0.698399L55.7627 8.80027C55.7877 13.2708 55.8254 16.9149 55.8629 16.9149C55.9015 16.9142 56.4145 16.6012 57.0149 16.2134C57.6285 15.8252 58.8558 15.1617 59.7449 14.7235C60.634 14.2852 61.9113 13.7591 62.5624 13.5588C63.2136 13.3459 64.2279 13.0828 64.8164 12.9576C65.6679 12.7698 66.4069 12.7199 68.4479 12.7199C70.6017 12.7324 71.2154 12.7698 72.2672 13.0077C72.956 13.1455 73.9703 13.4211 74.5213 13.5964C75.0723 13.7843 76.1993 14.2602 77.0257 14.6608C77.8522 15.0616 78.9291 15.6626 79.4299 15.9882C79.9183 16.3263 80.82 17.0276 81.4086 17.541C82.0096 18.0544 82.8862 18.931 83.3495 19.482C83.8128 20.0329 84.3012 20.6339 84.4264 20.8342C84.5516 21.022 84.6894 21.1472 84.727 21.0971C84.7646 21.0586 84.8271 20.483 84.8772 19.82C84.9273 19.1438 85.0901 18.1796 85.2404 17.6662C85.3781 17.1528 85.7036 16.2762 85.9665 15.7252C86.217 15.1743 86.6554 14.3854 86.9309 13.9721C87.1938 13.5589 87.7949 12.8326 88.2457 12.3442C88.6965 11.8684 89.523 11.1546 90.0615 10.7789C90.6125 10.4032 91.5893 9.8522 92.2404 9.53914C92.8916 9.23861 94.0562 8.83773 94.8075 8.63738C95.5588 8.44956 96.6859 8.23681 97.312 8.16168C97.9381 8.08655 99.1779 8.02398 100.067 8.02398C100.956 8.02399 102.171 8.08655 102.759 8.16168C103.348 8.2243 104.249 8.37457 104.763 8.47474C105.276 8.58746 106.378 8.888 107.205 9.16347C108.031 9.43897 109.271 9.9524 109.96 10.2905C110.648 10.6411 111.763 11.2924 113.654 12.532L113.666 23.99L113.378 23.7268C113.215 23.589 112.639 23.0883 112.088 22.625C111.537 22.1492 110.548 21.4229 109.897 20.9846C109.246 20.5464 108.169 19.9327 107.518 19.6196C106.867 19.2941 105.927 18.9308 105.452 18.7805C104.963 18.6428 104.011 18.4925 103.323 18.455C102.384 18.4049 101.883 18.4424 101.319 18.5927C100.906 18.7054 100.33 18.931 100.042 19.1063C99.7412 19.2816 99.3657 19.6321 99.1903 19.8826C98.99 20.1831 98.8395 20.6215 98.8019 21.0472C98.7394 21.5856 98.777 21.8612 98.9648 22.2995C99.1026 22.6125 99.353 23.0258 99.5283 23.2387C99.7037 23.4391 100.255 23.9023 100.768 24.2529C101.282 24.6036 102.484 25.3173 103.448 25.8432C104.412 26.3566 105.852 27.1456 106.641 27.5838C107.43 28.0096 108.72 28.7986 109.521 29.3245C110.498 29.9756 111.299 30.6394 112.026 31.3907C112.614 32.0043 113.353 32.8934 113.679 33.3818C113.992 33.8701 114.392 34.5965 114.568 35.0097C114.743 35.4229 114.981 36.1242 115.106 36.575C115.282 37.2136 115.332 37.8524 115.344 39.5177C115.344 41.3584 115.307 41.7843 115.056 42.7109C114.893 43.2995 114.58 44.1636 114.355 44.6519C114.129 45.1403 113.704 45.8916 113.403 46.3424C113.103 46.7932 112.401 47.6197 111.85 48.1706C111.287 48.7341 110.41 49.4604 109.897 49.7986C109.384 50.1241 108.557 50.5749 108.081 50.8003C107.605 51.0257 106.729 51.3512 106.14 51.514C105.552 51.6893 104.575 51.9274 103.949 52.0401C103.323 52.1528 101.807 52.2779 100.568 52.3155C99.228 52.3531 97.5499 52.3281 96.4354 52.2404C95.4086 52.1528 94.0186 52.0023 93.3674 51.9022C92.7163 51.802 91.5266 51.5766 90.7377 51.4013C89.9489 51.2134 88.6465 50.863 87.8576 50.6C87.0687 50.3371 86.0418 49.9488 84.727 49.3478L84.7395 43.2744L84.0882 44.151C83.725 44.6394 82.8862 45.5661 82.2225 46.2172C81.5588 46.8684 80.5193 47.7573 79.8932 48.1956C79.2796 48.6339 78.1903 49.2852 77.464 49.6609C76.7378 50.024 75.5606 50.5247 74.8343 50.7752C74.1081 51.0131 73.0938 51.2886 72.5803 51.4013C72.0669 51.5014 71.015 51.6519 70.2637 51.727C69.2494 51.8272 68.4478 51.8272 67.1957 51.727C66.2691 51.6519 65.117 51.5014 64.6286 51.4013C64.1403 51.3011 63.2762 51.0757 62.6876 50.9004C62.0991 50.7251 60.8343 50.1991 59.8701 49.7108C58.9059 49.2349 58.0292 48.7716 57.9039 48.6965C57.7907 48.6079 54.6222 43.2477 44.0293 25.0544L44.0041 12.9327C43.9916 6.25823 44.0293 0.760913 44.0919 0.723346ZM69.0114 21.4728C68.2727 21.4478 67.3961 21.4979 66.8826 21.598C66.3943 21.6857 65.693 21.8612 65.3173 21.9864C64.9417 22.1116 64.2905 22.3745 63.8773 22.5874C63.4641 22.7877 62.8755 23.1258 62.5624 23.3387C62.2493 23.5516 61.6983 24.015 61.3226 24.3657C60.9595 24.7038 60.4086 25.3049 60.1205 25.6805C59.8325 26.0562 59.4192 26.6823 59.2063 27.058C58.9934 27.4337 58.6429 28.2852 58.43 28.9363C58.0919 29.9256 58.0166 30.3889 57.9666 31.6913C57.9165 32.8558 57.9415 33.5195 58.0918 34.2583C58.2045 34.8093 58.4676 35.6859 58.6805 36.1993C58.8808 36.7127 59.2438 37.4389 59.4692 37.802C59.6821 38.1777 60.1581 38.804 60.4962 39.2047C60.8469 39.6179 61.5106 40.2566 61.9989 40.6448C62.4873 41.0204 63.2386 41.5337 63.6894 41.759C64.1402 41.997 64.9792 42.3352 65.5678 42.5356C66.5319 42.8486 66.8076 42.8861 68.5731 42.8861C70.2385 42.8986 70.6517 42.8611 71.4907 42.6107C72.0166 42.4604 72.8682 42.1347 73.3566 41.8843C73.8575 41.6338 74.6089 41.1957 75.0222 40.8952C75.4354 40.6072 76.0866 40.0309 76.4622 39.6302C76.8379 39.217 77.3762 38.5535 77.6391 38.1403C77.9146 37.7271 78.3029 37.0258 78.5032 36.575C78.7036 36.1242 78.9791 35.3353 79.1169 34.8219C79.2922 34.1707 79.3673 33.4318 79.3798 32.38C79.3923 31.3031 79.3298 30.5893 79.167 29.8755C79.0418 29.3246 78.7662 28.4855 78.5658 27.9972C78.3655 27.5088 77.9398 26.7324 77.6142 26.244C77.2886 25.7682 76.6876 25.0294 76.2744 24.6161C75.8612 24.2029 75.0973 23.5768 74.5839 23.2387C74.0705 22.9006 73.2816 22.4746 72.8307 22.2868C72.38 22.1115 71.6286 21.8612 71.1402 21.7485C70.6519 21.6232 69.7001 21.4979 69.0114 21.4728ZM87.9202 29.3746C87.8826 29.4122 87.9076 29.8754 87.9953 30.4014C88.0704 30.9649 88.0955 32.0795 88.0579 33.0061C88.0203 33.8952 87.9077 35.1099 87.795 35.6984C87.6823 36.287 87.4569 37.2136 87.2941 37.7646C87.1188 38.3155 86.9811 38.8413 86.981 38.9166C86.981 39.0042 87.6697 39.43 88.5087 39.8433C89.3602 40.269 90.7002 40.8325 91.4891 41.0955C92.278 41.3459 93.5177 41.659 94.244 41.7842C95.1205 41.922 96.0222 41.9719 96.9488 41.9469C98.2385 41.8968 98.4014 41.8719 99.1903 41.4587C99.8164 41.1457 100.167 40.87 100.443 40.4819C100.768 40.0061 100.818 39.8307 100.818 39.0795C100.818 38.3281 100.768 38.1527 100.43 37.6768C100.217 37.3637 99.6158 36.8378 98.9898 36.4246C98.4137 36.0364 97.0615 35.2474 95.9971 34.6839C94.9328 34.1079 93.4301 33.2815 92.6787 32.8432C91.9274 32.3924 90.8755 31.7286 90.3621 31.3655C89.8487 31.0149 89.0972 30.4014 88.709 30.0257C88.321 29.6377 87.958 29.3499 87.9202 29.3746Z" fill="white"/>
</svg>
