<svg width="115" height="64" viewBox="0 0 115 64" fill="none" xmlns="http://www.w3.org/2000/svg">
<path d="M15.7641 18.6637C15.7641 18.5259 18.1057 14.3685 20.9608 9.4347C23.8159 4.48836 26.2077 0.443634 26.2703 0.443634C26.3329 0.443634 32.8446 11.6637 40.7337 25.3757C48.6228 39.1002 55.0968 50.3703 55.1219 50.4204C55.1344 50.483 50.4886 50.5331 33.9215 50.5206L24.8428 34.7174C19.8463 26.0268 15.7641 18.8014 15.7641 18.6637Z" fill="#EA8303"/>
<path d="M7.74974 29.1825C8.08784 29.0698 8.71396 28.8945 9.1272 28.8068C9.54044 28.7191 10.5673 28.6315 11.4063 28.6315C12.3454 28.619 13.3222 28.6941 13.9107 28.8193C14.4492 28.9195 15.3383 29.2075 15.8893 29.4454C16.4403 29.6834 17.1916 30.059 17.5673 30.2844C17.9429 30.4973 18.7193 31.136 19.3079 31.6869C19.8839 32.2379 20.6603 33.1395 21.036 33.6905C21.3991 34.2415 21.8499 35.0555 22.0378 35.5063C22.2256 35.9571 22.4886 36.7084 22.6138 37.1968C22.7641 37.7102 22.8893 38.6744 22.9269 39.5134C22.9644 40.3524 22.9394 41.3417 22.8517 41.8927C22.7641 42.4061 22.5387 43.3077 22.3383 43.8963C22.1254 44.4848 21.6997 45.4115 21.3741 45.9499C21.036 46.4884 20.3472 47.39 19.8338 47.941C19.3204 48.492 18.4188 49.2558 17.8302 49.644C17.2417 50.0447 16.315 50.5331 15.7641 50.746C15.2131 50.9589 14.2864 51.2344 13.6979 51.3471C12.8839 51.5224 12.2578 51.5474 11.0056 51.4973C9.89106 51.4598 9.08963 51.3471 8.46351 51.1718C7.97514 51.0215 7.18623 50.7335 6.71038 50.5206C6.24706 50.3077 5.48319 49.882 4.99482 49.5564C4.51897 49.2308 3.7551 48.6047 3.31682 48.1539C2.86602 47.7031 2.21485 46.8891 1.8517 46.3381C1.48855 45.7871 1.02523 44.9106 0.812347 44.3972C0.611989 43.8837 0.349019 43.0322 0.236318 42.5188C0.111094 41.9553 0.0234375 41.0036 0.0234375 40.1395C0.0234375 39.2755 0.111094 38.2988 0.236318 37.6977C0.349019 37.1467 0.637034 36.2451 0.874959 35.6941C1.11288 35.1431 1.48855 34.3918 1.71396 34.0161C1.92684 33.653 2.42773 32.9768 2.8034 32.5259C3.17907 32.0751 3.88033 31.3989 4.3687 31.0358C4.84455 30.6726 5.67103 30.1467 6.18444 29.8837C6.69786 29.6208 7.39911 29.2952 7.74974 29.1825Z" fill="#EA8303"/>
<path d="M41.4351 58.3095C41.5729 58.2971 41.8983 58.3721 42.1612 58.4597C42.4742 58.5599 42.6247 58.6851 42.6247 58.8354C42.6247 59.0357 42.587 59.0357 42.036 58.8479C41.5101 58.66 41.3849 58.6602 41.0594 58.8104C40.8591 58.9106 40.6086 59.1359 40.4959 59.3363C40.3331 59.6368 40.3331 59.7119 40.4959 60.025C40.6211 60.2379 41.0092 60.5135 41.5977 60.8015C42.1487 61.0645 42.5871 61.365 42.6873 61.5529C42.7874 61.7282 42.8626 62.0537 42.8751 62.279C42.8751 62.5545 42.7499 62.8176 42.4995 63.1182C42.2741 63.3811 41.9609 63.5815 41.7229 63.6315C41.485 63.6816 41.0719 63.6314 40.7463 63.5313C40.4333 63.4311 40.1328 63.2558 40.0576 63.1431C39.9825 63.0304 39.9574 62.9178 39.995 62.8802C40.0327 62.8427 40.3081 62.9303 40.6211 63.0805C41.0218 63.2558 41.3097 63.3185 41.5977 63.2559C41.8106 63.2183 42.0862 63.0554 42.1864 62.9052C42.2865 62.7424 42.3742 62.4419 42.3742 62.2416C42.3742 62.0413 42.3115 61.7656 42.2238 61.6529C42.1361 61.5402 41.698 61.2773 41.2472 61.0769C40.7964 60.8891 40.333 60.5885 40.2078 60.4132C40.0951 60.2504 39.995 59.9124 39.995 59.6745C39.995 59.4366 40.0826 59.0985 40.1953 58.9357C40.308 58.7854 40.5708 58.5724 40.7962 58.4722C41.0091 58.3845 41.2973 58.3095 41.4351 58.3095Z" fill="#2D2D31"/>
<path d="M48.8233 58.3095C48.9611 58.2971 49.2865 58.3721 49.5494 58.4597C49.8624 58.5599 50.0129 58.6851 50.0129 58.8354C50.0129 59.0357 49.9752 59.0357 49.4117 58.8479C48.8983 58.66 48.7731 58.6602 48.4476 58.8104C48.2473 58.9106 47.9968 59.1359 47.8841 59.3363C47.7213 59.6368 47.7213 59.712 47.8841 60.0125C47.9843 60.2004 48.2097 60.4258 48.385 60.5134C48.5603 60.6011 48.9734 60.8015 49.3114 60.9517C49.6871 61.127 49.9878 61.3774 50.088 61.5903C50.1881 61.7781 50.2633 62.1039 50.2633 62.3042C50.2633 62.5421 50.1255 62.8427 49.8877 63.1182C49.6623 63.3811 49.3491 63.5815 49.0987 63.6315C48.8733 63.6816 48.4601 63.6314 48.1345 63.5313C47.8215 63.4311 47.5085 63.2558 47.4458 63.1431C47.3832 63.0304 47.3456 62.9178 47.3832 62.8802C47.4208 62.8427 47.6713 62.9303 47.9467 63.068C48.2973 63.2433 48.5854 63.2935 48.8859 63.2434C49.1238 63.2058 49.4242 63.0805 49.5494 62.9553C49.6746 62.8301 49.7749 62.5672 49.7624 62.3042C49.7624 62.0663 49.6997 61.7656 49.612 61.6529C49.5243 61.5402 49.0861 61.2773 48.6354 61.0769C48.1846 60.8891 47.7212 60.5885 47.596 60.4132C47.4833 60.2503 47.3832 59.9248 47.3832 59.7119C47.3832 59.4865 47.4833 59.1484 47.596 58.9606C47.7212 58.7853 47.9968 58.5598 48.1971 58.4722C48.3975 58.3846 48.6855 58.3095 48.8233 58.3095Z" fill="#2D2D31"/>
<path fill-rule="evenodd" clip-rule="evenodd" d="M71.6766 58.4223C71.9145 58.3597 72.3904 58.3346 72.741 58.3722C73.1166 58.4097 73.5924 58.5725 73.9179 58.7728C74.3186 59.0107 74.5816 59.3114 74.8446 59.7998C75.1326 60.3632 75.1952 60.6012 75.1577 61.1146C75.1201 61.4652 74.9948 61.9659 74.8571 62.2289C74.7319 62.5044 74.3939 62.8927 74.1184 63.0805C73.843 63.2808 73.3922 63.5062 73.1167 63.5814C72.8412 63.644 72.3653 63.6691 72.0523 63.6315C71.7392 63.5815 71.2634 63.4186 70.9879 63.2559C70.7124 63.0931 70.3741 62.7925 70.2238 62.5921C70.0861 62.4043 69.8983 62.0412 69.8232 61.8033C69.7355 61.5654 69.673 61.1647 69.673 60.9268C69.673 60.6888 69.8232 60.1879 70.011 59.8122C70.2239 59.4115 70.5371 59.0107 70.8 58.8354C71.038 58.6726 71.4387 58.4849 71.6766 58.4223ZM72.3653 58.6727C72.2276 58.6853 71.8894 58.7604 71.614 58.8606C71.3385 58.9607 70.9753 59.1735 70.825 59.3363C70.6622 59.4865 70.4492 59.7621 70.349 59.9499C70.2488 60.1503 70.1739 60.6261 70.1739 61.0143C70.1739 61.5653 70.2364 61.8409 70.4618 62.179C70.612 62.4169 70.9378 62.7424 71.1757 62.9052C71.4136 63.0554 71.7768 63.2183 71.9896 63.2559C72.19 63.3059 72.5657 63.306 72.8036 63.2559C73.0415 63.2183 73.4423 63.0554 73.6802 62.9052C73.9181 62.7423 74.2436 62.4169 74.3938 62.179C74.6192 61.8409 74.682 61.5653 74.682 61.0143C74.6819 60.6261 74.6068 60.1503 74.5066 59.9499C74.4189 59.7621 74.1685 59.4615 73.9431 59.2612C73.7302 59.0734 73.342 58.8731 73.079 58.798C72.8286 58.7354 72.5031 58.6728 72.3653 58.6727Z" fill="#2D2D31"/>
<path d="M83.9859 58.4223C84.1738 58.4223 84.199 58.5975 84.199 60.2128C84.199 61.8031 84.1613 62.0536 83.9108 62.542C83.7606 62.8425 83.4601 63.1932 83.2598 63.3185C83.0594 63.4437 82.5961 63.5815 82.258 63.6191C81.7571 63.6817 81.5316 63.6439 81.0808 63.406C80.7678 63.2433 80.4171 62.9804 80.2918 62.8051C80.1541 62.6298 80.004 62.2416 79.9413 61.9286C79.8787 61.6155 79.8286 60.7012 79.8161 59.8998C79.8161 58.5098 79.8286 58.4223 80.0666 58.4223C80.3044 58.4223 80.317 58.5102 80.317 60.1754C80.317 61.4526 80.3671 62.0411 80.5049 62.3416C80.6176 62.5796 80.893 62.8675 81.2185 63.0428C81.6443 63.2808 81.8698 63.331 82.258 63.2683C82.5334 63.2182 82.884 63.0931 83.0343 62.993C83.1971 62.8928 83.4225 62.6547 83.5352 62.4669C83.723 62.1789 83.7607 61.8282 83.7607 60.2755C83.7607 58.6101 83.7856 58.4223 83.9859 58.4223Z" fill="#2D2D31"/>
<path d="M62.5353 58.4849C62.8859 58.3722 63.3491 58.3221 63.7498 58.3597C64.113 58.3972 64.614 58.51 64.8519 58.6101C65.1273 58.7228 65.2775 58.8731 65.265 58.9983C65.2399 59.1317 65.1648 59.1694 65.0397 59.111C64.9396 59.0609 64.6014 58.9355 64.2884 58.8479C63.9754 58.7477 63.5496 58.6728 63.3492 58.6727C63.1489 58.6727 62.7481 58.7853 62.4726 58.9105C62.1846 59.0357 61.7964 59.3614 61.5961 59.6244C61.258 60.0501 61.2204 60.1879 61.2204 61.0018C61.2204 61.7281 61.2705 61.9786 61.4833 62.2666C61.6211 62.4544 61.9342 62.7424 62.1721 62.9052C62.41 63.0554 62.7982 63.2183 63.0361 63.2683C63.2866 63.3184 63.7625 63.2683 64.1632 63.1556C64.5388 63.0554 64.9644 62.9176 65.0896 62.855C65.29 62.7674 65.315 62.7801 65.2775 62.993C65.2398 63.1557 65.027 63.3184 64.6014 63.4687C64.1632 63.6189 63.7624 63.6691 63.224 63.6191C62.7356 63.5815 62.2847 63.4563 61.9341 63.2434C61.6085 63.0556 61.2704 62.7048 61.0575 62.3416C60.782 61.8533 60.7195 61.5904 60.732 60.9894C60.732 60.5637 60.8196 60.0753 60.9323 59.8624C61.045 59.662 61.3205 59.2988 61.5584 59.0734C61.7838 58.8605 62.2222 58.5851 62.5353 58.4849Z" fill="#2D2D31"/>
<path d="M1.61393 58.4223C2.49042 58.4223 3.054 58.4724 3.054 58.5475C3.05349 58.6226 2.53953 58.6853 0.612136 58.7353L0.549524 60.8015H1.73915C2.71579 60.8015 2.92877 60.8391 2.92877 60.9894C2.92867 61.1395 2.71524 61.1772 0.549524 61.1772L0.612136 63.2434L1.82671 63.2808C2.54047 63.2933 3.054 63.3561 3.054 63.4312C3.05344 63.5063 2.4891 63.5565 0.173608 63.5565V58.4223H1.61393Z" fill="#2D2D31"/>
<path d="M7.51191 58.4223C7.64969 58.4098 7.97514 58.6477 8.23806 58.9481C8.51355 59.2487 8.96456 59.737 9.75347 60.5885L10.7553 59.4867C11.3939 58.7854 11.8321 58.4097 11.9574 58.4348C12.12 58.4724 11.8945 58.7981 11.1182 59.6745C10.5422 60.3256 10.0665 60.8892 10.0665 60.9268C10.0675 60.9654 10.5681 61.566 11.1935 62.279C12.0574 63.2681 12.2577 63.5563 12.0701 63.5565C11.9198 63.5565 11.4314 63.1305 10.7802 62.4167C10.2167 61.8031 9.7157 61.3023 9.67814 61.3274C9.64015 61.3529 9.17706 61.8536 8.6514 62.4669C8.03796 63.1554 7.59971 63.5563 7.43683 63.5565C7.21142 63.5565 7.23637 63.5063 7.587 63.0805C7.8124 62.805 8.32592 62.2166 9.44041 60.9268L8.71401 60.1001C8.32582 59.6368 7.83749 59.0732 7.63714 58.8479C7.32409 58.4722 7.31156 58.4223 7.51191 58.4223Z" fill="#2D2D31"/>
<path fill-rule="evenodd" clip-rule="evenodd" d="M17.8304 58.4223C18.469 58.4223 18.9699 58.4849 19.2079 58.6101C19.4082 58.7103 19.6461 58.9231 19.7212 59.0858C19.8089 59.2361 19.8589 59.5869 19.8589 59.8624C19.8464 60.1503 19.7461 60.4632 19.6209 60.601C19.4957 60.7262 19.2078 60.9142 18.9824 61.0018C18.7695 61.102 18.2686 61.1772 17.2043 61.1772V62.3668C17.2043 63.3432 17.1666 63.5563 17.0164 63.5565C16.8537 63.5565 16.8286 63.1932 16.8286 60.9894V58.4223H17.8304ZM17.2043 58.6727V60.8015C18.7319 60.8015 18.8823 60.764 19.1452 60.4885C19.3205 60.3132 19.4583 60.025 19.4583 59.8247C19.4583 59.6369 19.3706 59.3614 19.2705 59.1986C19.1703 59.0483 18.8696 58.8731 18.6067 58.798C18.3562 58.7354 17.9305 58.6727 17.6675 58.6727H17.2043Z" fill="#2D2D31"/>
<path fill-rule="evenodd" clip-rule="evenodd" d="M25.469 58.4223C26.1076 58.4223 26.6086 58.4849 26.8465 58.6101C27.0468 58.7103 27.2723 58.9107 27.3474 59.0484C27.4225 59.1862 27.4726 59.5243 27.4726 59.7998C27.4726 60.1628 27.3849 60.3883 27.1596 60.6137C26.9969 60.7889 26.7965 60.9266 26.7213 60.9268C26.6587 60.9268 26.8964 61.3649 27.2721 61.9034C27.6352 62.4293 28.0234 63.0178 28.1486 63.2182C28.3365 63.5313 28.3365 63.5565 28.1237 63.5565C27.9859 63.5565 27.6478 63.1306 27.1845 62.4294C26.5709 61.4652 26.4081 61.2772 25.9949 61.1645C25.7445 61.0894 25.3939 61.0519 25.2186 61.0769C24.9063 61.1144 24.9054 61.1394 24.8681 62.3326L24.8679 62.3416C24.8428 63.3181 24.8053 63.5563 24.6551 63.5565C24.4923 63.5565 24.4673 63.1932 24.4672 60.9894V58.4223H25.469ZM25.3062 58.6727C25.1183 58.6727 24.9304 58.7477 24.8928 58.8354C24.8552 58.9356 24.8428 59.399 24.8679 59.8748L24.9055 60.7389C26.4331 60.7014 26.5709 60.6637 26.8088 60.3757C26.9716 60.2004 27.0969 59.9249 27.0969 59.7621C27.1095 59.6118 27.0091 59.3614 26.8839 59.1986C26.7587 59.0358 26.4332 58.8606 26.1578 58.798C25.8823 58.7354 25.5065 58.6727 25.3062 58.6727Z" fill="#2D2D31"/>
<path d="M34.1095 58.4223C34.9484 58.4223 35.4869 58.4724 35.4869 58.5475C35.4865 58.6226 35.01 58.6727 33.1077 58.6727V60.8015H34.2347C35.1487 60.8015 35.3617 60.8391 35.3617 60.9894C35.3616 61.1395 35.1482 61.1772 33.1077 61.1772V63.306H34.3599C35.1112 63.306 35.6122 63.3561 35.6122 63.4312C35.6116 63.5063 35.0474 63.5565 32.732 63.5565V58.4223H34.1095Z" fill="#2D2D31"/>
<path fill-rule="evenodd" clip-rule="evenodd" d="M90.0845 58.4223C90.723 58.4223 91.224 58.4849 91.4619 58.6101C91.6623 58.7104 91.9253 58.9733 92.0254 59.1736C92.1256 59.374 92.2133 59.6493 92.2133 59.7746C92.2133 59.8872 92.1005 60.1753 91.9628 60.4007C91.8251 60.6135 91.5871 60.839 91.1489 60.9392L91.4118 61.2146C91.5621 61.3649 91.9627 61.9285 92.3258 62.4669C92.6764 62.9928 92.9646 63.4563 92.9646 63.4938C92.9644 63.5314 92.8642 63.5565 92.7391 63.5565C92.6139 63.5439 92.2634 63.1305 91.8376 62.4669C91.3367 61.678 91.0361 61.3399 90.7355 61.2146C90.5227 61.127 90.1595 61.052 89.5836 61.052V62.3042C89.5836 63.4685 89.5709 63.5564 89.3331 63.5565C89.0952 63.5565 89.0827 63.4687 89.0827 60.9894V58.4223H90.0845ZM89.6085 59.7244L89.5836 60.8015C90.2096 60.8015 90.5729 60.7765 90.7732 60.7389C90.9735 60.7013 91.274 60.5636 91.4243 60.4259C91.6371 60.238 91.6998 60.0626 91.6747 59.7119C91.6622 59.3989 91.5621 59.1985 91.3367 59.0357C91.1614 58.9105 90.7104 58.7602 90.3222 58.7226L89.621 58.6351L89.6085 59.7244Z" fill="#2D2D31"/>
<path d="M97.5353 58.4223C97.698 58.4225 97.7231 58.786 97.7231 60.9894C97.7231 63.1927 97.698 63.5563 97.5353 63.5565C97.3725 63.5565 97.3474 63.1932 97.3474 60.9894C97.3474 58.7854 97.3725 58.4223 97.5353 58.4223Z" fill="#2D2D31"/>
<path d="M104.11 58.4223C104.948 58.4223 105.487 58.4724 105.487 58.5475C105.487 58.6226 105.01 58.6727 103.108 58.6727V60.8015H104.26C105.211 60.8015 105.424 60.8391 105.424 60.9894C105.424 61.1395 105.211 61.1772 103.108 61.1772V63.306H104.36C105.111 63.306 105.612 63.3561 105.612 63.4312C105.612 63.5063 105.047 63.5565 102.732 63.5565V58.4223H104.11Z" fill="#2D2D31"/>
<path fill-rule="evenodd" clip-rule="evenodd" d="M111.247 58.4223C111.886 58.4223 112.387 58.4849 112.625 58.6101C112.838 58.7103 113.063 58.9107 113.126 59.0484C113.188 59.1862 113.251 59.5243 113.251 59.7998C113.251 60.1879 113.176 60.3758 112.9 60.6137C112.712 60.789 112.524 60.9392 112.462 60.9268C112.412 60.9268 112.675 61.3649 113.05 61.9034C113.413 62.4293 113.802 63.0178 113.927 63.2182C114.115 63.5313 114.115 63.5565 113.902 63.5565C113.777 63.5565 113.401 63.118 112.938 62.4167C112.324 61.4902 112.111 61.2647 111.748 61.152C111.51 61.0894 111.172 61.0519 110.997 61.0769C110.685 61.1144 110.684 61.1394 110.646 62.3326L110.646 62.3416C110.621 63.3181 110.583 63.5563 110.433 63.5565C110.271 63.5565 110.245 63.1932 110.245 60.9894V58.4223H111.247ZM111.122 58.6852C110.947 58.6852 110.746 58.7227 110.696 58.7603C110.634 58.8104 110.596 59.2989 110.608 59.8624L110.621 60.8766C112.099 60.7264 112.324 60.6386 112.575 60.3882C112.737 60.2004 112.888 59.9248 112.888 59.7746C112.888 59.6243 112.787 59.3613 112.662 59.2111C112.549 59.0483 112.224 58.8606 111.948 58.798C111.673 58.7354 111.297 58.6852 111.122 58.6852Z" fill="#2D2D31"/>
<path fill-rule="evenodd" clip-rule="evenodd" d="M43.6891 0.781726C43.7535 0.731672 46.3971 0.706707 55.3349 0.756779L55.3598 8.85865C55.3849 13.3291 55.4225 16.9732 55.4601 16.9732C55.4986 16.9726 56.0116 16.6596 56.6121 16.2718C57.2257 15.8836 58.453 15.2201 59.342 14.7818C60.2311 14.3436 61.5084 13.8175 62.1596 13.6172C62.8108 13.4043 63.8251 13.1412 64.4136 13.016C65.2651 12.8282 66.0041 12.7783 68.0451 12.7783C70.1988 12.7908 70.8126 12.8282 71.8644 13.0661C72.5531 13.2039 73.5675 13.4795 74.1184 13.6548C74.6695 13.8427 75.7965 14.3185 76.6229 14.7192C77.4494 15.1199 78.5263 15.721 79.0271 16.0465C79.5155 16.3847 80.4172 17.086 81.0057 17.5994C81.6068 18.1128 82.4834 18.9894 82.9467 19.5403C83.41 20.0913 83.8984 20.6923 84.0236 20.8926C84.1488 21.0804 84.2866 21.2056 84.3242 21.1555C84.3618 21.117 84.4243 20.5414 84.4743 19.8783C84.5244 19.2022 84.6873 18.238 84.8375 17.7246C84.9753 17.2112 85.3007 16.3346 85.5637 15.7836C85.8141 15.2327 86.2526 14.4437 86.5281 14.0305C86.791 13.6173 87.3921 12.891 87.8429 12.4026C88.2937 11.9267 89.1202 11.213 89.6587 10.8373C90.2096 10.4616 91.1864 9.91058 91.8376 9.59752C92.4888 9.29699 93.6534 8.89612 94.4047 8.69577C95.156 8.50794 96.2831 8.29519 96.9092 8.22006C97.5353 8.14493 98.775 8.08237 99.6641 8.08237C100.553 8.08237 101.768 8.14493 102.356 8.22006C102.945 8.28268 103.847 8.43295 104.36 8.53312C104.873 8.64585 105.975 8.94638 106.802 9.22185C107.628 9.49735 108.868 10.0108 109.557 10.3489C110.245 10.6995 111.36 11.3508 113.251 12.5904L113.263 24.0484L112.975 23.7852C112.812 23.6474 112.236 23.1467 111.686 22.6834C111.135 22.2076 110.145 21.4813 109.494 21.043C108.843 20.6048 107.766 19.9911 107.115 19.678C106.464 19.3525 105.525 18.9892 105.049 18.8389C104.56 18.7011 103.609 18.5509 102.92 18.5134C101.981 18.4633 101.48 18.5008 100.916 18.651C100.503 18.7638 99.9269 18.9894 99.6389 19.1647C99.3384 19.34 98.9628 19.6905 98.7875 19.941C98.5872 20.2415 98.4367 20.6799 98.3991 21.1056C98.3365 21.644 98.3742 21.9196 98.562 22.3579C98.6998 22.6709 98.9502 23.0842 99.1255 23.297C99.3009 23.4974 99.8519 23.9607 100.365 24.3113C100.879 24.662 102.081 25.3756 103.045 25.9016C104.009 26.415 105.449 27.2039 106.238 27.6422C107.027 28.068 108.317 28.857 109.118 29.3829C110.095 30.034 110.897 30.6977 111.623 31.4491C112.211 32.0627 112.95 32.9518 113.276 33.4402C113.589 33.9285 113.99 34.6549 114.165 35.0681C114.34 35.4813 114.578 36.1826 114.703 36.6334C114.879 37.272 114.929 37.9108 114.941 39.5761C114.941 41.4168 114.904 41.8427 114.653 42.7693C114.49 43.3579 114.177 44.222 113.952 44.7103C113.727 45.1987 113.301 45.95 113 46.4008C112.7 46.8516 111.999 47.6781 111.448 48.229C110.884 48.7925 110.008 49.5188 109.494 49.8569C108.981 50.1825 108.154 50.6333 107.678 50.8587C107.203 51.0841 106.326 51.4096 105.737 51.5724C105.149 51.7477 104.172 51.9858 103.546 52.0985C102.92 52.2112 101.405 52.3363 100.165 52.3739C98.8251 52.4115 97.1471 52.3865 96.0326 52.2988C95.0058 52.2111 93.6158 52.0607 92.9646 51.9606C92.3135 51.8604 91.1238 51.635 90.3349 51.4597C89.5461 51.2718 88.2437 50.9214 87.4548 50.6584C86.6659 50.3955 85.639 50.0072 84.3242 49.4062L84.3367 43.3328L83.6853 44.2094C83.3221 44.6978 82.4833 45.6245 81.8197 46.2756C81.156 46.9268 80.1165 47.8157 79.4903 48.254C78.8768 48.6923 77.7875 49.3436 77.0612 49.7192C76.335 50.0824 75.1578 50.5831 74.4315 50.8335C73.7053 51.0714 72.6909 51.3469 72.1775 51.4597C71.6641 51.5598 70.6122 51.7103 69.8608 51.7854C68.8466 51.8856 68.045 51.8856 66.7929 51.7854C65.8663 51.7103 64.7142 51.5598 64.2258 51.4597C63.7374 51.3595 62.8734 51.1341 62.2848 50.9588C61.6963 50.7835 60.4315 50.2575 59.4673 49.7691C58.503 49.2933 57.6263 48.83 57.5011 48.7549C57.3879 48.6663 54.2194 43.3061 43.6265 25.1128L43.6013 12.991C43.5888 6.31661 43.6265 0.819293 43.6891 0.781726ZM68.6086 21.5312C67.8699 21.5062 66.9932 21.5563 66.4798 21.6564C65.9915 21.7441 65.2902 21.9196 64.9145 22.0448C64.5389 22.17 63.8877 22.4329 63.4744 22.6457C63.0612 22.8461 62.4727 23.1842 62.1596 23.3971C61.8465 23.61 61.2955 24.0734 60.9198 24.4241C60.5567 24.7622 60.0057 25.3632 59.7177 25.7389C59.4297 26.1146 59.0164 26.7407 58.8035 27.1164C58.5906 27.4921 58.2401 28.3436 58.0272 28.9947C57.6891 29.984 57.6138 30.4473 57.5637 31.7496C57.5136 32.9142 57.5387 33.5779 57.6889 34.3167C57.8017 34.8677 58.0648 35.7443 58.2776 36.2577C58.478 36.7711 58.841 37.4973 59.0664 37.8604C59.2793 38.2361 59.7553 38.8623 60.0934 39.2631C60.444 39.6763 61.1077 40.315 61.5961 40.7031C62.0845 41.0788 62.8358 41.592 63.2866 41.8174C63.7374 42.0554 64.5764 42.3936 65.165 42.594C66.1291 42.907 66.4047 42.9444 68.1703 42.9444C69.8357 42.957 70.2489 42.9195 71.0879 42.6691C71.6138 42.5188 72.4654 42.1931 72.9538 41.9427C73.4547 41.6922 74.2061 41.2541 74.6193 40.9536C75.0326 40.6656 75.6838 40.0893 76.0594 39.6886C76.4351 39.2754 76.9734 38.6119 77.2363 38.1987C77.5118 37.7854 77.9 37.0842 78.1004 36.6334C78.3008 36.1826 78.5763 35.3937 78.7141 34.8802C78.8894 34.2291 78.9645 33.4902 78.977 32.4384C78.9895 31.3615 78.927 30.6476 78.7642 29.9339C78.639 29.3829 78.3634 28.5439 78.163 28.0555C77.9627 27.5672 77.5369 26.7908 77.2114 26.3024C76.8858 25.8266 76.2848 25.0878 75.8716 24.6745C75.4584 24.2613 74.6945 23.6352 74.1811 23.297C73.6677 22.959 72.8787 22.533 72.4279 22.3451C71.9772 22.1699 71.2258 21.9195 70.7374 21.8068C70.2491 21.6816 69.2973 21.5562 68.6086 21.5312ZM87.5174 29.433C87.4798 29.4706 87.5048 29.9338 87.5925 30.4597C87.6676 31.0232 87.6926 32.1378 87.6551 33.0645C87.6175 33.9536 87.5049 35.1683 87.3922 35.7568C87.2794 36.3454 87.054 37.272 86.8913 37.823C86.716 38.3739 86.5782 38.8997 86.5782 38.975C86.5782 39.0626 87.2668 39.4884 88.1058 39.9017C88.9574 40.3274 90.2974 40.8909 91.0863 41.1539C91.8752 41.4043 93.1149 41.7174 93.8412 41.8426C94.7177 41.9804 95.6193 42.0303 96.546 42.0053C97.8357 41.9552 97.9986 41.9303 98.7875 41.5171C99.4136 41.204 99.7643 40.9284 100.04 40.5402C100.365 40.0645 100.415 39.8891 100.415 39.1378C100.415 38.3865 100.365 38.211 100.027 37.7352C99.8141 37.4221 99.213 36.8962 98.587 36.483C98.0109 36.0947 96.6587 35.3058 95.5943 34.7423C94.5299 34.1663 93.0273 33.3399 92.2759 32.9016C91.5246 32.4508 90.4727 31.787 89.9592 31.4239C89.4458 31.0732 88.6943 30.4597 88.3061 30.0841C87.9181 29.6961 87.5552 29.4083 87.5174 29.433Z" fill="#2D2D31"/>
</svg>
